<mxfile host="app.diagrams.net" agent="Mozilla/5.0 (Windows NT 10.0; Win64; x64) AppleWebKit/537.36 (KHTML, like Gecko) Chrome/140.0.0.0 Safari/537.36" version="28.2.5">
  <diagram id="C5RBs43oDa-KdzZeNtuy" name="Page-1">
    <mxGraphModel dx="1665" dy="743" grid="1" gridSize="10" guides="1" tooltips="1" connect="1" arrows="1" fold="1" page="1" pageScale="1" pageWidth="827" pageHeight="1169" math="0" shadow="0">
      <root>
        <mxCell id="WIyWlLk6GJQsqaUBKTNV-0" />
        <mxCell id="WIyWlLk6GJQsqaUBKTNV-1" parent="WIyWlLk6GJQsqaUBKTNV-0" />
        <mxCell id="ex78fkyiA-qQVlyMHV4S-55" style="edgeStyle=none;rounded=0;orthogonalLoop=1;jettySize=auto;html=1;exitX=0.5;exitY=1;exitDx=0;exitDy=0;entryX=0;entryY=0.5;entryDx=0;entryDy=0;" edge="1" parent="WIyWlLk6GJQsqaUBKTNV-1" source="WIyWlLk6GJQsqaUBKTNV-7" target="ex78fkyiA-qQVlyMHV4S-13">
          <mxGeometry relative="1" as="geometry">
            <Array as="points">
              <mxPoint x="400" y="870" />
            </Array>
          </mxGeometry>
        </mxCell>
        <mxCell id="WIyWlLk6GJQsqaUBKTNV-7" value="Msg: Person not on the list" style="rounded=1;whiteSpace=wrap;html=1;fontSize=12;glass=0;strokeWidth=1;shadow=0;" parent="WIyWlLk6GJQsqaUBKTNV-1" vertex="1">
          <mxGeometry x="340" y="760" width="120" height="40" as="geometry" />
        </mxCell>
        <mxCell id="ex78fkyiA-qQVlyMHV4S-33" value="" style="edgeStyle=none;rounded=0;orthogonalLoop=1;jettySize=auto;html=1;" edge="1" parent="WIyWlLk6GJQsqaUBKTNV-1" source="ex78fkyiA-qQVlyMHV4S-0" target="ex78fkyiA-qQVlyMHV4S-21">
          <mxGeometry relative="1" as="geometry" />
        </mxCell>
        <mxCell id="ex78fkyiA-qQVlyMHV4S-0" value="Start" style="ellipse;whiteSpace=wrap;html=1;" vertex="1" parent="WIyWlLk6GJQsqaUBKTNV-1">
          <mxGeometry x="240.25" y="40" width="75" height="50" as="geometry" />
        </mxCell>
        <mxCell id="ex78fkyiA-qQVlyMHV4S-32" style="edgeStyle=none;rounded=0;orthogonalLoop=1;jettySize=auto;html=1;exitX=0.5;exitY=1;exitDx=0;exitDy=0;entryX=0.5;entryY=0;entryDx=0;entryDy=0;" edge="1" parent="WIyWlLk6GJQsqaUBKTNV-1" source="ex78fkyiA-qQVlyMHV4S-4" target="ex78fkyiA-qQVlyMHV4S-21">
          <mxGeometry relative="1" as="geometry" />
        </mxCell>
        <mxCell id="ex78fkyiA-qQVlyMHV4S-4" value="Set person" style="rounded=1;whiteSpace=wrap;html=1;" vertex="1" parent="WIyWlLk6GJQsqaUBKTNV-1">
          <mxGeometry x="240.25" y="120" width="80" height="40" as="geometry" />
        </mxCell>
        <mxCell id="ex78fkyiA-qQVlyMHV4S-7" value="Msg: Person is on the list&amp;nbsp;" style="rounded=1;whiteSpace=wrap;html=1;shadow=0;strokeWidth=1;spacing=6;spacingTop=-4;" vertex="1" parent="WIyWlLk6GJQsqaUBKTNV-1">
          <mxGeometry x="550" y="270" width="120" height="60" as="geometry" />
        </mxCell>
        <mxCell id="ex78fkyiA-qQVlyMHV4S-11" value="" style="edgeStyle=orthogonalEdgeStyle;rounded=0;orthogonalLoop=1;jettySize=auto;html=1;" edge="1" parent="WIyWlLk6GJQsqaUBKTNV-1" source="ex78fkyiA-qQVlyMHV4S-9" target="ex78fkyiA-qQVlyMHV4S-7">
          <mxGeometry relative="1" as="geometry" />
        </mxCell>
        <mxCell id="ex78fkyiA-qQVlyMHV4S-37" style="edgeStyle=none;rounded=0;orthogonalLoop=1;jettySize=auto;html=1;exitX=0.5;exitY=1;exitDx=0;exitDy=0;entryX=0.5;entryY=0;entryDx=0;entryDy=0;" edge="1" parent="WIyWlLk6GJQsqaUBKTNV-1" source="ex78fkyiA-qQVlyMHV4S-9" target="ex78fkyiA-qQVlyMHV4S-25">
          <mxGeometry relative="1" as="geometry" />
        </mxCell>
        <mxCell id="ex78fkyiA-qQVlyMHV4S-9" value="Case 1" style="rhombus;whiteSpace=wrap;html=1;shadow=0;fontFamily=Helvetica;fontSize=12;align=center;strokeWidth=1;spacing=6;spacingTop=-4;" vertex="1" parent="WIyWlLk6GJQsqaUBKTNV-1">
          <mxGeometry x="350" y="260" width="100" height="80" as="geometry" />
        </mxCell>
        <mxCell id="ex78fkyiA-qQVlyMHV4S-12" value="Yes" style="text;html=1;align=center;verticalAlign=middle;resizable=0;points=[];autosize=1;strokeColor=none;fillColor=none;" vertex="1" parent="WIyWlLk6GJQsqaUBKTNV-1">
          <mxGeometry x="460" y="280" width="40" height="30" as="geometry" />
        </mxCell>
        <mxCell id="ex78fkyiA-qQVlyMHV4S-57" style="edgeStyle=none;rounded=0;orthogonalLoop=1;jettySize=auto;html=1;exitX=0.75;exitY=1;exitDx=0;exitDy=0;entryX=0.5;entryY=0;entryDx=0;entryDy=0;" edge="1" parent="WIyWlLk6GJQsqaUBKTNV-1" source="ex78fkyiA-qQVlyMHV4S-13" target="ex78fkyiA-qQVlyMHV4S-20">
          <mxGeometry relative="1" as="geometry" />
        </mxCell>
        <mxCell id="ex78fkyiA-qQVlyMHV4S-13" value="Print Final Msg" style="rounded=1;whiteSpace=wrap;html=1;shadow=0;strokeWidth=1;spacing=6;spacingTop=-4;" vertex="1" parent="WIyWlLk6GJQsqaUBKTNV-1">
          <mxGeometry x="520" y="840" width="120" height="60" as="geometry" />
        </mxCell>
        <mxCell id="ex78fkyiA-qQVlyMHV4S-20" value="End" style="ellipse;whiteSpace=wrap;html=1;" vertex="1" parent="WIyWlLk6GJQsqaUBKTNV-1">
          <mxGeometry x="572.5" y="940" width="75" height="50" as="geometry" />
        </mxCell>
        <mxCell id="ex78fkyiA-qQVlyMHV4S-22" style="edgeStyle=orthogonalEdgeStyle;rounded=0;orthogonalLoop=1;jettySize=auto;html=1;" edge="1" parent="WIyWlLk6GJQsqaUBKTNV-1" source="ex78fkyiA-qQVlyMHV4S-21" target="ex78fkyiA-qQVlyMHV4S-9">
          <mxGeometry relative="1" as="geometry">
            <Array as="points">
              <mxPoint x="280" y="300" />
            </Array>
          </mxGeometry>
        </mxCell>
        <mxCell id="ex78fkyiA-qQVlyMHV4S-24" value="" style="edgeStyle=orthogonalEdgeStyle;rounded=0;orthogonalLoop=1;jettySize=auto;html=1;entryX=0;entryY=0.5;entryDx=0;entryDy=0;" edge="1" parent="WIyWlLk6GJQsqaUBKTNV-1" source="ex78fkyiA-qQVlyMHV4S-21" target="ex78fkyiA-qQVlyMHV4S-25">
          <mxGeometry relative="1" as="geometry">
            <mxPoint x="284" y="390" as="targetPoint" />
            <Array as="points">
              <mxPoint x="280" y="430" />
            </Array>
          </mxGeometry>
        </mxCell>
        <mxCell id="ex78fkyiA-qQVlyMHV4S-28" style="edgeStyle=orthogonalEdgeStyle;rounded=0;orthogonalLoop=1;jettySize=auto;html=1;" edge="1" parent="WIyWlLk6GJQsqaUBKTNV-1" source="ex78fkyiA-qQVlyMHV4S-21" target="ex78fkyiA-qQVlyMHV4S-26">
          <mxGeometry relative="1" as="geometry">
            <Array as="points">
              <mxPoint x="280" y="560" />
            </Array>
          </mxGeometry>
        </mxCell>
        <mxCell id="ex78fkyiA-qQVlyMHV4S-36" style="edgeStyle=orthogonalEdgeStyle;rounded=0;orthogonalLoop=1;jettySize=auto;html=1;exitX=0.5;exitY=1;exitDx=0;exitDy=0;entryX=0;entryY=0.5;entryDx=0;entryDy=0;" edge="1" parent="WIyWlLk6GJQsqaUBKTNV-1" source="ex78fkyiA-qQVlyMHV4S-21" target="ex78fkyiA-qQVlyMHV4S-27">
          <mxGeometry relative="1" as="geometry" />
        </mxCell>
        <mxCell id="ex78fkyiA-qQVlyMHV4S-21" value="Switch" style="rhombus;whiteSpace=wrap;html=1;" vertex="1" parent="WIyWlLk6GJQsqaUBKTNV-1">
          <mxGeometry x="240.25" y="180" width="80" height="80" as="geometry" />
        </mxCell>
        <mxCell id="ex78fkyiA-qQVlyMHV4S-39" style="edgeStyle=none;rounded=0;orthogonalLoop=1;jettySize=auto;html=1;exitX=0.5;exitY=1;exitDx=0;exitDy=0;entryX=0.5;entryY=0;entryDx=0;entryDy=0;" edge="1" parent="WIyWlLk6GJQsqaUBKTNV-1" source="ex78fkyiA-qQVlyMHV4S-25" target="ex78fkyiA-qQVlyMHV4S-26">
          <mxGeometry relative="1" as="geometry" />
        </mxCell>
        <mxCell id="ex78fkyiA-qQVlyMHV4S-25" value="Case 2" style="rhombus;whiteSpace=wrap;html=1;shadow=0;fontFamily=Helvetica;fontSize=12;align=center;strokeWidth=1;spacing=6;spacingTop=-4;" vertex="1" parent="WIyWlLk6GJQsqaUBKTNV-1">
          <mxGeometry x="350" y="390" width="100" height="80" as="geometry" />
        </mxCell>
        <mxCell id="ex78fkyiA-qQVlyMHV4S-40" style="edgeStyle=none;rounded=0;orthogonalLoop=1;jettySize=auto;html=1;exitX=0.5;exitY=1;exitDx=0;exitDy=0;entryX=0.5;entryY=0;entryDx=0;entryDy=0;" edge="1" parent="WIyWlLk6GJQsqaUBKTNV-1" source="ex78fkyiA-qQVlyMHV4S-26" target="ex78fkyiA-qQVlyMHV4S-27">
          <mxGeometry relative="1" as="geometry" />
        </mxCell>
        <mxCell id="ex78fkyiA-qQVlyMHV4S-26" value="Case 3" style="rhombus;whiteSpace=wrap;html=1;shadow=0;fontFamily=Helvetica;fontSize=12;align=center;strokeWidth=1;spacing=6;spacingTop=-4;" vertex="1" parent="WIyWlLk6GJQsqaUBKTNV-1">
          <mxGeometry x="350" y="520" width="100" height="80" as="geometry" />
        </mxCell>
        <mxCell id="ex78fkyiA-qQVlyMHV4S-27" value="Case 4" style="rhombus;whiteSpace=wrap;html=1;shadow=0;fontFamily=Helvetica;fontSize=12;align=center;strokeWidth=1;spacing=6;spacingTop=-4;" vertex="1" parent="WIyWlLk6GJQsqaUBKTNV-1">
          <mxGeometry x="350" y="650" width="100" height="80" as="geometry" />
        </mxCell>
        <mxCell id="ex78fkyiA-qQVlyMHV4S-31" style="edgeStyle=none;rounded=0;orthogonalLoop=1;jettySize=auto;html=1;entryX=0.5;entryY=1;entryDx=0;entryDy=0;" edge="1" parent="WIyWlLk6GJQsqaUBKTNV-1" source="ex78fkyiA-qQVlyMHV4S-4" target="ex78fkyiA-qQVlyMHV4S-4">
          <mxGeometry relative="1" as="geometry" />
        </mxCell>
        <mxCell id="ex78fkyiA-qQVlyMHV4S-41" value="No" style="text;html=1;align=center;verticalAlign=middle;resizable=0;points=[];autosize=1;strokeColor=none;fillColor=none;" vertex="1" parent="WIyWlLk6GJQsqaUBKTNV-1">
          <mxGeometry x="394" y="348" width="40" height="30" as="geometry" />
        </mxCell>
        <mxCell id="ex78fkyiA-qQVlyMHV4S-42" value="No" style="text;html=1;align=center;verticalAlign=middle;resizable=0;points=[];autosize=1;strokeColor=none;fillColor=none;" vertex="1" parent="WIyWlLk6GJQsqaUBKTNV-1">
          <mxGeometry x="394" y="490" width="40" height="30" as="geometry" />
        </mxCell>
        <mxCell id="ex78fkyiA-qQVlyMHV4S-43" value="No" style="text;html=1;align=center;verticalAlign=middle;resizable=0;points=[];autosize=1;strokeColor=none;fillColor=none;" vertex="1" parent="WIyWlLk6GJQsqaUBKTNV-1">
          <mxGeometry x="394" y="620" width="40" height="30" as="geometry" />
        </mxCell>
        <mxCell id="ex78fkyiA-qQVlyMHV4S-44" value="No" style="text;html=1;align=center;verticalAlign=middle;resizable=0;points=[];autosize=1;strokeColor=none;fillColor=none;" vertex="1" parent="WIyWlLk6GJQsqaUBKTNV-1">
          <mxGeometry x="394" y="730" width="40" height="30" as="geometry" />
        </mxCell>
        <mxCell id="ex78fkyiA-qQVlyMHV4S-45" value="Msg: Person is on the list&amp;nbsp;" style="rounded=1;whiteSpace=wrap;html=1;shadow=0;strokeWidth=1;spacing=6;spacingTop=-4;" vertex="1" parent="WIyWlLk6GJQsqaUBKTNV-1">
          <mxGeometry x="550" y="400" width="120" height="60" as="geometry" />
        </mxCell>
        <mxCell id="ex78fkyiA-qQVlyMHV4S-46" value="" style="edgeStyle=orthogonalEdgeStyle;rounded=0;orthogonalLoop=1;jettySize=auto;html=1;" edge="1" parent="WIyWlLk6GJQsqaUBKTNV-1" target="ex78fkyiA-qQVlyMHV4S-45">
          <mxGeometry relative="1" as="geometry">
            <mxPoint x="450" y="430" as="sourcePoint" />
          </mxGeometry>
        </mxCell>
        <mxCell id="ex78fkyiA-qQVlyMHV4S-47" value="Yes" style="text;html=1;align=center;verticalAlign=middle;resizable=0;points=[];autosize=1;strokeColor=none;fillColor=none;" vertex="1" parent="WIyWlLk6GJQsqaUBKTNV-1">
          <mxGeometry x="460" y="410" width="40" height="30" as="geometry" />
        </mxCell>
        <mxCell id="ex78fkyiA-qQVlyMHV4S-48" value="Msg: Person is on the list&amp;nbsp;" style="rounded=1;whiteSpace=wrap;html=1;shadow=0;strokeWidth=1;spacing=6;spacingTop=-4;" vertex="1" parent="WIyWlLk6GJQsqaUBKTNV-1">
          <mxGeometry x="550" y="530" width="120" height="60" as="geometry" />
        </mxCell>
        <mxCell id="ex78fkyiA-qQVlyMHV4S-49" value="" style="edgeStyle=orthogonalEdgeStyle;rounded=0;orthogonalLoop=1;jettySize=auto;html=1;" edge="1" parent="WIyWlLk6GJQsqaUBKTNV-1" target="ex78fkyiA-qQVlyMHV4S-48">
          <mxGeometry relative="1" as="geometry">
            <mxPoint x="450" y="560" as="sourcePoint" />
          </mxGeometry>
        </mxCell>
        <mxCell id="ex78fkyiA-qQVlyMHV4S-50" value="Yes" style="text;html=1;align=center;verticalAlign=middle;resizable=0;points=[];autosize=1;strokeColor=none;fillColor=none;" vertex="1" parent="WIyWlLk6GJQsqaUBKTNV-1">
          <mxGeometry x="460" y="540" width="40" height="30" as="geometry" />
        </mxCell>
        <mxCell id="ex78fkyiA-qQVlyMHV4S-56" style="edgeStyle=none;rounded=0;orthogonalLoop=1;jettySize=auto;html=1;entryX=0.75;entryY=0;entryDx=0;entryDy=0;" edge="1" parent="WIyWlLk6GJQsqaUBKTNV-1" source="ex78fkyiA-qQVlyMHV4S-51" target="ex78fkyiA-qQVlyMHV4S-13">
          <mxGeometry relative="1" as="geometry" />
        </mxCell>
        <mxCell id="ex78fkyiA-qQVlyMHV4S-51" value="Msg: Person is on the list&amp;nbsp;" style="rounded=1;whiteSpace=wrap;html=1;shadow=0;strokeWidth=1;spacing=6;spacingTop=-4;" vertex="1" parent="WIyWlLk6GJQsqaUBKTNV-1">
          <mxGeometry x="550" y="660" width="120" height="60" as="geometry" />
        </mxCell>
        <mxCell id="ex78fkyiA-qQVlyMHV4S-52" value="" style="edgeStyle=orthogonalEdgeStyle;rounded=0;orthogonalLoop=1;jettySize=auto;html=1;" edge="1" parent="WIyWlLk6GJQsqaUBKTNV-1" target="ex78fkyiA-qQVlyMHV4S-51">
          <mxGeometry relative="1" as="geometry">
            <mxPoint x="450" y="690" as="sourcePoint" />
          </mxGeometry>
        </mxCell>
        <mxCell id="ex78fkyiA-qQVlyMHV4S-53" value="Yes" style="text;html=1;align=center;verticalAlign=middle;resizable=0;points=[];autosize=1;strokeColor=none;fillColor=none;" vertex="1" parent="WIyWlLk6GJQsqaUBKTNV-1">
          <mxGeometry x="460" y="670" width="40" height="30" as="geometry" />
        </mxCell>
        <mxCell id="ex78fkyiA-qQVlyMHV4S-54" style="edgeStyle=none;rounded=0;orthogonalLoop=1;jettySize=auto;html=1;exitX=0.5;exitY=1;exitDx=0;exitDy=0;entryX=0.125;entryY=1.033;entryDx=0;entryDy=0;entryPerimeter=0;" edge="1" parent="WIyWlLk6GJQsqaUBKTNV-1" source="ex78fkyiA-qQVlyMHV4S-27" target="ex78fkyiA-qQVlyMHV4S-44">
          <mxGeometry relative="1" as="geometry" />
        </mxCell>
      </root>
    </mxGraphModel>
  </diagram>
</mxfile>
